<svg width="80" height="80" viewBox="0 0 80 80" fill="none" xmlns="http://www.w3.org/2000/svg">
<rect width="80" height="80" rx="40" fill="url(#paint0_linear_1816_2193)"/>
<g clip-path="url(#clip0_1816_2193)">
<path d="M45.3199 22.5387C45.3199 22.5387 48.623 28.364 48.623 25.1426C48.623 21.9229 46.0101 19.3125 42.7912 19.3125C39.5715 19.3125 36.9595 21.9229 36.9595 25.1426C36.9603 28.364 45.3199 22.5387 45.3199 22.5387Z" fill="white"/>
<path d="M49.4848 18.258C49.7996 18.0816 50.1079 17.9157 50.3838 17.7984C50.6524 17.6803 50.9276 17.6277 50.9559 17.6916C50.9721 17.7175 50.8879 17.7539 50.8086 17.7482C50.7285 17.7434 50.6969 17.728 50.7058 17.7685C50.7058 17.796 50.7471 17.9004 50.7601 17.9529L50.8054 18.0679C50.7965 18.0581 50.8248 18.1285 50.8313 18.1536L50.9025 18.3745L51.5247 20.3473C51.9924 21.7278 52.6357 23.2773 53.8778 24.517C54.496 25.1247 55.2672 25.6159 56.0877 25.8513C56.9082 26.0868 57.7489 26.0909 58.5104 25.8659C57.8371 25.4387 57.2602 25.0236 56.8151 24.5461C56.366 24.076 56.0343 23.5808 55.7608 23.0419C55.2138 21.9721 54.8707 20.7325 54.4192 19.3763C54.1869 18.6982 53.9401 17.9877 53.5736 17.2498L53.4279 16.9722L53.3397 16.8104L53.2653 16.6842C53.1091 16.4147 52.9537 16.2148 52.7134 15.9705C52.4796 15.7398 52.1543 15.493 51.7367 15.3587C51.3208 15.2212 50.8612 15.2317 50.5213 15.3272C50.1702 15.4186 49.9161 15.574 49.7025 15.7245C49.4904 15.8782 49.3149 16.0344 49.1684 16.1986C48.8666 16.5223 48.6424 16.8525 48.4385 17.181C48.2378 17.5128 48.059 17.8389 47.8947 18.173C47.8106 18.3389 47.7256 18.5008 47.631 18.6553C47.5428 18.8212 47.4505 18.9693 47.3057 19.1085C47.7224 19.1465 48.1205 18.9458 48.4749 18.7904C48.8366 18.6229 49.1635 18.4312 49.4848 18.258Z" fill="white"/>
<path d="M61.2713 57.5696C56.9502 55.2885 52.554 53.1677 48.0541 51.292C47.6398 53.599 47.0208 55.8736 46.3613 58.0494C50.2413 59.7042 54.038 61.5459 57.7877 63.5284C61.7204 65.6031 65.2071 59.6476 61.2713 57.5696Z" fill="white"/>
<path d="M45.1291 38.0277C45.0708 37.9273 45.0109 37.8359 44.947 37.7461C44.7342 35.3428 43.4128 33.247 40.7749 32.522C39.6792 32.221 38.4185 32.3035 37.2566 32.6968C37.1902 32.6483 37.1271 32.5997 37.0551 32.556C31.9912 29.3686 27.1353 25.9304 22.5724 22.0537C19.2038 19.1924 14.2977 24.0491 17.6938 26.9338C22.6112 31.1108 27.8231 34.8743 33.2722 38.3222C32.8506 40.6486 32.302 42.9475 31.6829 45.2278C26.6628 43.6579 21.7834 41.5355 16.4517 41.3469C14.6214 41.283 12.9351 42.9645 13.0014 44.7989C13.1721 49.518 14.661 53.818 16.6929 58.0387C18.622 62.0482 24.5711 58.546 22.6517 54.5568C21.7551 52.6908 20.9904 50.7844 20.4936 48.8068C25.2645 49.8878 29.8453 52.2174 34.6275 53.1245C34.6777 53.1342 34.7246 53.1391 34.774 53.144C36.1164 53.678 37.6417 54.2914 37.9355 54.3909C38.6006 52.1794 39.1703 49.9437 39.4535 47.7152C39.7537 47.4255 40.0822 47.1924 40.4204 47.0055C40.2594 51.5782 38.6249 56.2277 37.2598 60.5067C35.9044 64.7597 42.5664 66.5634 43.9145 62.3419C46.359 54.6854 49.4735 45.5417 45.1291 38.0277Z" fill="white"/>
</g>
<defs>
<linearGradient id="paint0_linear_1816_2193" x1="20.6667" y1="69.3333" x2="80" y2="12" gradientUnits="userSpaceOnUse">
<stop stop-color="#12A8C1"/>
<stop offset="1" stop-color="#D6DFFF"/>
</linearGradient>
<clipPath id="clip0_1816_2193">
<rect width="50" height="50" fill="white" transform="translate(13 15)"/>
</clipPath>
</defs>
</svg>
