<svg width="119" height="119" viewBox="0 0 119 119" fill="none" xmlns="http://www.w3.org/2000/svg">
<circle cx="59.5" cy="59.5" r="59.5" fill="#053A8B" fill-opacity="0.05"/>
<path fill-rule="evenodd" clip-rule="evenodd" d="M53.0633 75.6578H53.0634H53.0633H53.0634H53.0633C51.7097 75.314 49.2651 74.8197 47.0829 74.4717C45.3652 74.1978 43.8087 74.0149 43.0696 74.0671C43.0032 74.0718 42.9532 74.1294 42.9578 74.1958C42.9625 74.2621 43.0202 74.3122 43.0866 74.3075C43.807 74.2566 45.3441 74.4382 47.0452 74.7094C49.2144 75.0552 51.6482 75.5476 53.0007 75.8909C53.0042 75.8919 53.0079 75.8928 53.0117 75.8935L53.0119 75.8931C53.7317 76.0262 54.8096 75.7222 55.9213 75.4086C56.7652 75.1706 57.6291 74.9269 58.3503 74.8707C58.4161 74.8691 58.5412 74.7976 58.6467 74.7828C58.8237 74.7579 59 74.7923 59.1512 74.873C59.3025 74.9537 59.4292 75.0809 59.5069 75.2415C59.5424 75.3148 59.5678 75.3953 59.5807 75.4813C59.5841 75.527 59.6133 75.5687 59.659 75.5857L59.6591 75.5852L64.4422 77.3668C64.4982 77.8236 64.5506 78.1366 64.5862 78.3501C64.6064 78.471 64.6211 78.5595 64.6277 78.621C64.6337 78.6763 64.6253 78.6803 64.594 78.6837C63.8705 78.7614 63.1633 78.4164 62.3571 78.0231C61.1885 77.453 59.8184 76.7845 57.8498 77.0919C57.5735 77.1349 54.9444 77.516 51.7774 77.7421C50.1007 77.8617 48.2763 77.9378 46.577 77.8966C46.3042 77.89 45.9045 77.9046 45.4157 77.9225C43.4944 77.9927 40.1832 78.1138 38.0231 77.1872C37.2391 76.8509 36.7725 76.2758 36.5269 75.5578C36.2787 74.8326 36.2529 73.9597 36.353 73.0367C36.8642 72.0604 38.7864 71.4157 41.11 71.0121C44.8482 70.3628 48.0723 70.4725 51.739 70.5874H51.7395C51.786 71.0328 52.5036 71.5545 52.7672 71.7349C53.672 72.3543 54.7838 72.788 55.8457 73.0412C59.5779 73.9311 63.3049 72.844 66.4647 70.7997L66.6555 70.6762L66.6041 70.5851C68.7601 70.4974 71.2449 70.5754 73.6962 70.825C76.056 71.0652 78.3845 71.4648 80.3575 72.0285C80.9831 72.2073 81.4391 72.4148 81.7492 72.6448C81.9852 72.82 82.1346 73.007 82.2083 73.2032C82.2804 73.395 82.2806 73.5998 82.2193 73.8142C82.159 74.025 82.0401 74.2452 81.872 74.4717C81.7854 74.5884 81.6877 74.7279 81.5829 74.8774C81.1071 75.5566 80.4803 76.4512 79.7532 76.7783C77.5119 77.7863 74.1948 77.8191 70.7295 77.8532C68.7408 77.8727 66.7034 77.8928 64.7888 78.0969C64.7558 77.8915 64.7155 77.6217 64.673 77.2656L64.6731 77.2654C64.6671 77.2152 64.6311 77.1759 64.5851 77.1633L62.0854 76.2322H62.0854C64.158 76.1813 65.7771 75.9907 67.3355 75.6196C68.9472 75.2359 70.4935 74.6594 72.4095 73.8448C72.4707 73.8187 72.4992 73.7479 72.4732 73.6867C72.4471 73.6256 72.3764 73.5971 72.3152 73.6231C70.4126 74.432 68.8778 75.0043 67.28 75.3848C65.7217 75.7558 63.6226 75.9717 61.5194 76.0214L59.8078 75.384C59.7896 75.2962 59.761 75.2135 59.7239 75.1368C59.6235 74.9294 59.4598 74.7651 59.2644 74.6608C59.069 74.5566 58.8417 74.5122 58.6137 74.5442C58.5136 74.5582 58.4135 74.587 58.316 74.6316C57.5749 74.6919 56.7056 74.937 55.8562 75.1766C54.7757 75.4814 53.728 75.777 53.0633 75.6578L53.0633 75.6578Z" fill="url(#paint0_linear_1785_2195)"/>
<path fill-rule="evenodd" clip-rule="evenodd" d="M66.3336 70.5976C65.942 69.9037 64.3028 67.1824 64.5872 65.4403C65.1913 61.7387 65.4931 62.7537 65.1186 60.0091C65.3931 59.4435 65.9023 58.8118 66.519 59.7992C66.8585 60.3428 67.1997 60.7922 67.482 61.0355C68.9386 62.2908 70.8547 63.4288 71.767 64.4574C73.6177 66.5432 75.8389 68.3017 78.1484 69.699C79.8014 70.7275 81.7171 71.7906 83.3469 72.8984C83.4815 69.8656 79.8053 68.2311 79.2553 68.4624C77.4368 66.4829 73.5499 63.2344 73.0496 62.7129C72.469 61.5901 71.5668 60.4041 70.565 59.4172C70.3832 59.2382 68.4249 54.263 64.7523 52.9093C64.652 52.8969 62.9991 52.4068 62.9012 52.3938C62.579 52.3288 62.263 52.2636 62.2126 52.2468C61.2886 51.9384 60.7531 51.4611 60.6105 50.3777C60.2219 50.5313 59.8079 50.6194 59.3751 50.6194C58.808 50.6194 58.268 50.4734 57.771 50.229C57.6407 51.3585 57.1028 51.9327 56.1616 52.2468C56.1092 52.2642 55.8841 52.3091 55.6392 52.356C55.5415 52.3687 53.6983 52.8971 53.5982 52.9093C49.9256 54.263 47.9673 59.2382 47.7856 59.4172C46.7838 60.4041 45.8815 61.5901 45.3009 62.7129C44.8006 63.2344 40.9137 66.4829 39.0953 68.4624C38.5453 68.2311 34.869 69.8655 35.0036 72.8984C36.6334 71.7906 38.5491 70.7275 40.2021 69.699C42.5116 68.3016 44.7329 66.5432 46.5835 64.4574C47.4959 63.4288 49.4119 62.2908 50.8685 61.0355C51.1508 60.7922 51.492 60.3427 51.8315 59.7992C52.6285 58.5233 53.1459 59.715 53.6513 60.6057C53.3391 62.1679 53.3898 61.6439 53.7872 65.4288C53.9707 67.1771 52.3825 69.8038 51.9957 70.477C51.6088 71.1501 58.0193 75.9768 66.3336 70.5976L66.3336 70.5976Z" fill="url(#paint1_linear_1785_2195)"/>
<path fill-rule="evenodd" clip-rule="evenodd" d="M59.2698 40C62.0461 40 63.8398 41.7481 63.8398 44.4539C63.8398 47.5543 61.7116 50.3778 59.3746 50.3778C56.9716 50.3778 54.6997 47.499 54.6997 44.4539C54.6998 41.7482 56.4937 40 59.2698 40H59.2698Z" fill="url(#paint2_linear_1785_2195)"/>
<path fill-rule="evenodd" clip-rule="evenodd" d="M56.9135 78.9646C58.0083 78.7858 59.5936 78.6278 61.449 78.443C61.7776 78.4103 62.1148 78.3767 62.4591 78.3421C62.3907 78.3089 62.3215 78.2752 62.2517 78.2411C61.1139 77.686 59.7797 77.0351 57.8868 77.3306C57.7023 77.3594 56.474 77.5382 54.7409 77.7213C54.7376 77.7309 54.733 77.7401 54.7272 77.7489C54.0315 78.787 53.7989 79.3907 53.8304 79.7176C53.8432 79.85 53.9075 79.9268 54.0028 79.9642C54.1188 80.0098 54.2806 80.0086 54.4594 79.9801C55.0532 79.8859 55.7756 79.5187 55.7932 79.4949L55.7994 79.4873C56.0926 79.0979 56.3474 79.0565 56.8544 78.9743L56.9135 78.9646V78.9646Z" fill="url(#paint3_linear_1785_2195)"/>
<defs>
<linearGradient id="paint0_linear_1785_2195" x1="24.7996" y1="73.9052" x2="89.8574" y2="75.4975" gradientUnits="userSpaceOnUse">
<stop stop-color="#24BCAC"/>
<stop offset="1" stop-color="#0494D4"/>
</linearGradient>
<linearGradient id="paint1_linear_1785_2195" x1="22.9046" y1="59.7373" x2="91.3732" y2="60.3686" gradientUnits="userSpaceOnUse">
<stop stop-color="#24BCAC"/>
<stop offset="1" stop-color="#0494D4"/>
</linearGradient>
<linearGradient id="paint2_linear_1785_2195" x1="52.4132" y1="44.3124" x2="65.3573" y2="44.3622" gradientUnits="userSpaceOnUse">
<stop stop-color="#24BCAC"/>
<stop offset="1" stop-color="#0494D4"/>
</linearGradient>
<linearGradient id="paint3_linear_1785_2195" x1="51.6684" y1="78.3968" x2="63.8901" y2="78.5646" gradientUnits="userSpaceOnUse">
<stop stop-color="#24BCAC"/>
<stop offset="1" stop-color="#0494D4"/>
</linearGradient>
</defs>
</svg>
