<svg width="119" height="119" viewBox="0 0 119 119" fill="none" xmlns="http://www.w3.org/2000/svg">
<circle cx="59.5" cy="59.5" r="59.5" fill="#053A8B" fill-opacity="0.05"/>
<path d="M56.0001 37C53.2383 37 51.0001 39.2383 51.0001 42C51.0001 44.7617 53.2383 47 56.0001 47C58.7618 47 61.0001 44.7617 61.0001 42C61.0001 39.2383 58.7618 37 56.0001 37ZM55.0001 50C52.7891 50 51.0001 51.7891 51.0001 54V67C51.0001 69.2109 52.7813 71 55.0001 71C55.6329 71 56.2188 70.875 56.7501 70.7031V70.707L56.9063 70.6445C57.1133 70.5742 57.3087 70.4961 57.4962 70.4102L63.543 68L66.1485 75.3203C66.7188 76.918 68.7501 77.5781 70.2032 76.332C70.9805 75.668 71.1797 74.543 70.8399 73.5781L67.8438 65.1758C67.3868 63.8945 66.1251 63.0781 64.7696 63.1914L59.0001 63.6719V54H72.0001C73.1055 54 74.0001 53.1055 74.0001 52C74.0001 50.8945 73.1055 50 72.0001 50H55.0001ZM51.3204 71.7305L51.0001 73.7617L43.461 77.2188C42.2071 77.7969 41.6602 79.2812 42.2344 80.5352C42.8087 81.7891 44.293 82.3398 45.5469 81.7656L54.5743 77.6211C55.4649 77.2109 56.1016 76.3906 56.2774 75.4219L56.7462 72.7812C56.2383 72.9023 55.6368 73 55.0001 73C53.6133 73 52.336 72.5234 51.3204 71.7305ZM70.0001 77C67.5821 77 65.5626 78.7188 65.0977 81H65.0001C64.6407 80.9961 64.3047 81.1836 64.1212 81.4961C63.9415 81.8086 63.9415 82.1914 64.1212 82.5039C64.3047 82.8164 64.6407 83.0039 65.0001 83H75.0001C75.3594 83.0039 75.6954 82.8164 75.879 82.5039C76.0587 82.1914 76.0587 81.8086 75.879 81.4961C75.6954 81.1836 75.3594 80.9961 75.0001 81H74.9024C74.4376 78.7188 72.418 77 70.0001 77Z" fill="url(#paint0_linear_1785_2193)"/>
<defs>
<linearGradient id="paint0_linear_1785_2193" x1="33.4991" y1="56.1149" x2="81.6601" y2="56.2702" gradientUnits="userSpaceOnUse">
<stop stop-color="#24BCAC"/>
<stop offset="1" stop-color="#0494D4"/>
</linearGradient>
</defs>
</svg>
