<svg width="120" height="119" viewBox="0 0 120 119" fill="none" xmlns="http://www.w3.org/2000/svg">
<circle cx="59.5435" cy="59.5" r="59.5" fill="#053A8B" fill-opacity="0.05"/>
<path d="M59.5001 38C58.3066 38 57.162 38.4741 56.3181 39.318C55.4742 40.1619 55.0001 41.3065 55.0001 42.5C55.0001 43.6935 55.4742 44.8381 56.3181 45.682C57.162 46.5259 58.3066 47 59.5001 47C60.6936 47 61.8381 46.5259 62.6821 45.682C63.526 44.8381 64.0001 43.6935 64.0001 42.5C64.0001 41.3065 63.526 40.1619 62.6821 39.318C61.8381 38.4741 60.6936 38 59.5001 38ZM55.5001 49C52.4621 49 50.0001 51.462 50.0001 54.5V67C50.0001 68.105 50.8951 69 52.0001 69C53.1051 69 54.0001 68.105 54.0001 67V57C54.0001 56.448 54.4481 56 55.0001 56C55.5521 56 56.0001 56.448 56.0001 57V65H63.0001V57C63.0001 56.448 63.4481 56 64.0001 56C64.5521 56 65.0001 56.448 65.0001 57V67C65.0001 68.105 65.8951 69 67.0001 69C68.1051 69 69.0001 68.105 69.0001 67V54.5C69.0001 51.462 66.5381 49 63.5001 49H55.5001ZM40.9845 57.9863C40.7196 57.9905 40.4672 58.0995 40.2826 58.2896C40.0981 58.4796 39.9965 58.7351 40.0001 59V65H39.0001C38.8676 64.9981 38.736 65.0226 38.613 65.072C38.4901 65.1214 38.3781 65.1948 38.2838 65.2878C38.1894 65.3809 38.1145 65.4918 38.0633 65.614C38.0122 65.7363 37.9858 65.8675 37.9858 66C37.9858 66.1325 38.0122 66.2637 38.0633 66.386C38.1145 66.5082 38.1894 66.6191 38.2838 66.7122C38.3781 66.8052 38.4901 66.8786 38.613 66.928C38.736 66.9774 38.8676 67.0019 39.0001 67H40.0001V73C39.9982 73.1325 40.0227 73.2641 40.0721 73.387C40.1215 73.51 40.1949 73.6219 40.2879 73.7163C40.381 73.8107 40.4918 73.8856 40.6141 73.9368C40.7364 73.9879 40.8676 74.0142 41.0001 74.0142C41.1326 74.0142 41.2638 73.9879 41.3861 73.9368C41.5083 73.8856 41.6192 73.8107 41.7122 73.7163C41.8053 73.6219 41.8786 73.51 41.9281 73.387C41.9775 73.2641 42.002 73.1325 42.0001 73V66.168C42.0179 66.06 42.0179 65.9498 42.0001 65.8418V59C42.0019 58.8662 41.9769 58.7334 41.9265 58.6095C41.876 58.4855 41.8013 58.373 41.7066 58.2784C41.6119 58.1839 41.4992 58.1094 41.3751 58.0592C41.2511 58.009 41.1182 57.9842 40.9845 57.9863ZM44.9845 57.9863C44.7196 57.9905 44.4672 58.0995 44.2826 58.2896C44.0981 58.4796 43.9965 58.7351 44.0001 59V73C43.9982 73.1325 44.0227 73.2641 44.0721 73.387C44.1215 73.51 44.1949 73.6219 44.2879 73.7163C44.381 73.8107 44.4918 73.8856 44.6141 73.9368C44.7364 73.9879 44.8676 74.0142 45.0001 74.0142C45.1326 74.0142 45.2638 73.9879 45.3861 73.9368C45.5083 73.8856 45.6192 73.8107 45.7122 73.7163C45.8053 73.6219 45.8786 73.51 45.9281 73.387C45.9775 73.2641 46.002 73.1325 46.0001 73V67H48.0001V65H46.0001V59C46.0019 58.8662 45.9769 58.7334 45.9265 58.6095C45.876 58.4855 45.8013 58.373 45.7066 58.2784C45.6119 58.1839 45.4992 58.1094 45.3751 58.0592C45.2511 58.009 45.1182 57.9842 44.9845 57.9863ZM73.9845 57.9863C73.7196 57.9905 73.4672 58.0995 73.2826 58.2896C73.0981 58.4796 72.9965 58.7351 73.0001 59V65H71.0001V67H73.0001V73C72.9982 73.1325 73.0227 73.2641 73.0721 73.387C73.1215 73.51 73.1949 73.6219 73.2879 73.7163C73.381 73.8107 73.4918 73.8856 73.6141 73.9368C73.7364 73.9879 73.8676 74.0142 74.0001 74.0142C74.1326 74.0142 74.2638 73.9879 74.3861 73.9368C74.5083 73.8856 74.6192 73.8107 74.7122 73.7163C74.8053 73.6219 74.8786 73.51 74.9281 73.387C74.9775 73.2641 75.002 73.1325 75.0001 73V59C75.0019 58.8662 74.9769 58.7334 74.9265 58.6095C74.8761 58.4855 74.8013 58.373 74.7066 58.2784C74.6119 58.1839 74.4992 58.1094 74.3751 58.0592C74.2511 58.009 74.1182 57.9842 73.9845 57.9863ZM77.9845 57.9863C77.7196 57.9905 77.4672 58.0995 77.2826 58.2896C77.0981 58.4796 76.9965 58.7351 77.0001 59V65.832C76.9822 65.94 76.9822 66.0502 77.0001 66.1582V73C76.9982 73.1325 77.0227 73.2641 77.0721 73.387C77.1215 73.51 77.1949 73.6219 77.2879 73.7163C77.381 73.8107 77.4918 73.8856 77.6141 73.9368C77.7364 73.9879 77.8676 74.0142 78.0001 74.0142C78.1326 74.0142 78.2638 73.9879 78.3861 73.9368C78.5083 73.8856 78.6192 73.8107 78.7122 73.7163C78.8053 73.6219 78.8786 73.51 78.9281 73.387C78.9775 73.2641 79.002 73.1325 79.0001 73V67H80.0001C80.1326 67.0019 80.2642 66.9774 80.3871 66.928C80.5101 66.8786 80.622 66.8052 80.7164 66.7122C80.8108 66.6191 80.8857 66.5082 80.9368 66.386C80.988 66.2637 81.0143 66.1325 81.0143 66C81.0143 65.8675 80.988 65.7363 80.9368 65.614C80.8857 65.4918 80.8108 65.3809 80.7164 65.2878C80.622 65.1948 80.5101 65.1214 80.3871 65.072C80.2642 65.0226 80.1326 64.9981 80.0001 65H79.0001V59C79.0019 58.8662 78.9769 58.7334 78.9265 58.6095C78.8761 58.4855 78.8013 58.373 78.7066 58.2784C78.6119 58.1839 78.4992 58.1094 78.3751 58.0592C78.2511 58.009 78.1182 57.9842 77.9845 57.9863ZM56.0001 67C56.0001 68.938 54.6133 70.5569 52.7813 70.9219L51.0567 78.9766C51.0187 79.1526 51.0001 79.327 51.0001 79.5C50.9991 80.654 51.8026 81.6924 52.9766 81.9434C53.1536 81.9814 53.33 82 53.504 82C54.657 82 55.6934 81.1964 55.9454 80.0234L58.3067 69H60.6934L63.0567 80.0234C63.3077 81.1964 64.3432 82 65.4962 82C65.6692 82 65.8475 81.9814 66.0235 81.9434C67.1975 81.6924 67.9991 80.654 67.9981 79.5C67.9991 79.327 67.9814 79.1526 67.9434 78.9766L66.2188 70.9219C64.3868 70.5569 63.0001 68.938 63.0001 67H56.0001Z" fill="url(#paint0_linear_1785_2192)"/>
<defs>
<linearGradient id="paint0_linear_1785_2192" x1="27.2218" y1="56.2838" x2="88.158" y2="56.5438" gradientUnits="userSpaceOnUse">
<stop stop-color="#24BCAC"/>
<stop offset="1" stop-color="#0494D4"/>
</linearGradient>
</defs>
</svg>
