<svg width="119" height="119" viewBox="0 0 119 119" fill="none" xmlns="http://www.w3.org/2000/svg">
<circle cx="59.5" cy="59.5" r="59.5" fill="#F2F5F9"/>
<path d="M59 35C56.5156 35 54.5 37.0156 54.5 39.5C54.5 41.9844 56.5156 44 59 44C61.4844 44 63.5 41.9844 63.5 39.5C63.5 37.0156 61.4844 35 59 35ZM73.625 43.3125C72.9727 43.3633 72.3945 43.8047 72.0938 44.4062L71.7812 45H46.25L46 44.5C45.6016 43.6992 44.6133 43.1992 43.8125 43.5C42.9258 43.7422 42.4258 44.6367 42.5312 45.5C42.5352 45.5391 42.5234 45.5859 42.5312 45.625C42.5625 45.7891 42.6094 45.9375 42.6875 46.0938L43.125 47L46.6875 54.4062C46.9883 55.0078 47.7109 55.207 48.3125 54.9062L54.0938 51.9062V61L52.0938 72.0938C51.9922 72.6953 52.1055 73.1875 52.4062 73.6875L57.4062 82.6875C57.9062 83.4883 58.6953 84 59.5938 84C59.9922 84 60.4141 83.8867 60.8125 83.6875C62.0117 82.9883 62.4141 81.5117 61.8125 80.3125L61.0312 78.9375L57.0938 72L57.3438 71L59 64L61.6875 69.8125L59.5625 72.2812L62 76.5938L66.3125 72.3125C67.0117 71.6133 67.207 70.7109 66.9062 69.8125L64 61V51.8125L69.8125 54.8125C70.4141 55.1133 71.1055 54.9141 71.4062 54.3125L75.4062 46C75.4883 45.8359 75.5312 45.6719 75.5625 45.5C75.5664 45.4805 75.5586 45.457 75.5625 45.4375C75.6836 44.5859 75.2109 43.7344 74.3125 43.4062C74.0859 43.332 73.8438 43.2969 73.625 43.3125ZM34 45V47H40.9062C40.5938 46.375 40.4844 45.6836 40.5312 45H34ZM77.5625 45C77.5938 45.6445 77.4766 46.3008 77.1875 46.875L77.125 47H84V45H77.5625ZM47.25 47H52.3125L48.6875 49.8125L47.25 47ZM65.75 47H70.7812L69.4062 49.6875L65.75 47Z" fill="url(#paint0_linear_1785_2194)"/>
<defs>
<linearGradient id="paint0_linear_1785_2194" x1="21.492" y1="55.3615" x2="92.301" y2="55.6768" gradientUnits="userSpaceOnUse">
<stop stop-color="#24BCAC"/>
<stop offset="1" stop-color="#0494D4"/>
</linearGradient>
</defs>
</svg>
