<svg width="80" height="80" viewBox="0 0 80 80" fill="none" xmlns="http://www.w3.org/2000/svg">
<rect width="80" height="80" rx="40" fill="url(#paint0_linear_1816_2197)"/>
<path d="M58.8639 36.22C61.1481 36.22 62.9998 34.3683 62.9998 32.0841C62.9998 29.7999 61.1481 27.9482 58.8639 27.9482C56.5797 27.9482 54.728 29.7999 54.728 32.0841C54.728 34.3683 56.5797 36.22 58.8639 36.22Z" fill="white"/>
<path d="M22.4921 48.7252C26.7368 46.6497 30.9816 44.5761 35.2274 42.5006C36.6129 44.5639 39.0946 44.7828 41.1681 43.717C43.6926 42.4202 46.2201 41.1213 48.7426 39.8244C48.8484 42.1962 48.9502 44.57 49.0531 46.9418C49.1844 49.9183 53.7987 49.7177 53.6674 46.7413C53.5279 43.5389 53.3905 40.3364 53.25 37.135C54.3199 35.7303 54.3494 33.5295 53.421 32.0922C52.0438 29.9657 49.5305 29.7316 47.4305 30.8086C43.774 32.6877 40.1176 34.5658 36.4632 36.4439C36.0469 36.6576 35.7018 36.9528 35.4209 37.2979C30.2772 39.8122 25.1346 42.3265 19.99 44.8418C17.3189 46.1458 19.8444 50.018 22.4921 48.7252Z" fill="white"/>
<path d="M62.3526 49.3779H13V52.052H62.3526V49.3779Z" fill="white"/>
<defs>
<linearGradient id="paint0_linear_1816_2197" x1="20.6667" y1="69.3333" x2="80" y2="12" gradientUnits="userSpaceOnUse">
<stop stop-color="#04CCFC"/>
<stop offset="1" stop-color="#A8E7F7"/>
</linearGradient>
</defs>
</svg>
