<svg width="80" height="80" viewBox="0 0 80 80" fill="none" xmlns="http://www.w3.org/2000/svg">
<rect width="80" height="80" rx="40" fill="url(#paint0_linear_1816_2194)"/>
<g clip-path="url(#clip0_1816_2194)">
<path d="M63.9743 45.6499C57.595 40.4721 52.4318 34.1833 48.0911 27.2352C47.7606 26.7076 47.3485 26.3448 46.8985 26.1185C45.3665 24.8176 43.0289 24.4233 41.1414 26.1848C37.4867 29.593 33.769 32.8566 29.8017 35.8979C29.3112 36.2737 28.8854 36.7092 28.546 37.1859C28.2834 37.2861 28.0305 37.4235 27.8051 37.6166C24.4647 40.485 20.5523 43.3285 16.1745 46.0692C15.0029 46.8029 14.6481 48.347 15.3826 49.5203C15.8577 50.2782 16.6722 50.6943 17.5061 50.6943C17.9602 50.6943 18.4191 50.5715 18.832 50.3121C22.6847 47.8994 26.1979 45.4026 29.3177 42.8679C30.6735 43.9223 32.7032 44.3175 34.11 43.238C37.9852 40.2693 41.6827 37.1698 45.2873 33.9054C49.3686 39.8564 54.1027 45.3331 59.7257 49.8984C62.7057 52.3168 66.9833 48.0933 63.9743 45.6499Z" fill="white"/>
<path d="M25.9959 37.3854C28.3803 37.3854 30.3132 35.4525 30.3132 33.0682C30.3132 30.6839 28.3803 28.751 25.9959 28.751C23.6116 28.751 21.6787 30.6839 21.6787 33.0682C21.6787 35.4525 23.6116 37.3854 25.9959 37.3854Z" fill="white"/>
</g>
<defs>
<linearGradient id="paint0_linear_1816_2194" x1="13.3333" y1="68" x2="80" y2="12.6667" gradientUnits="userSpaceOnUse">
<stop stop-color="#23BBAC"/>
<stop offset="1" stop-color="#9EE8E0"/>
</linearGradient>
<clipPath id="clip0_1816_2194">
<rect width="50" height="50" fill="white" transform="translate(15 13)"/>
</clipPath>
</defs>
</svg>
