<svg width="80" height="80" viewBox="0 0 80 80" fill="none" xmlns="http://www.w3.org/2000/svg">
<rect width="80" height="80" rx="40" fill="url(#paint0_linear_1816_2196)"/>
<g clip-path="url(#clip0_1816_2196)">
<path d="M51.5009 40.8878C51.2649 34.17 49.2789 27.6564 45.2626 22.2207C44.9019 21.7336 44.491 21.3026 44.0432 20.9335C42.6715 18.812 40.9375 16.9532 38.6837 15.7439C35.3327 13.9462 31.6027 15.5221 30.7155 19.2287C29.8853 22.7002 30.513 26.9659 30.4712 30.4943C30.4452 32.8134 30.4184 35.1341 30.3925 37.4532C32.6136 36.8983 34.9704 36.6556 37.461 36.751C37.4878 34.4052 37.5137 32.061 37.5413 29.7168C39.2076 32.4769 40.3006 35.4337 40.7182 38.6391C34.5243 37.5461 28.2952 38.3076 22.9959 42.1315C20.0718 44.2405 22.8871 49.1422 25.8448 47.0081C30.7883 43.4404 36.2667 43.1818 42.0255 44.7033C42.3276 44.7836 42.6088 44.802 42.8799 44.7953C45.9949 47.183 51.6783 45.9059 51.5009 40.8878Z" fill="white"/>
<path d="M30.2912 46.435C30.2334 51.484 30.1765 56.5356 30.118 61.5863C30.0669 66.1399 37.127 66.1374 37.1781 61.5863L37.0517 45.2005C34.5996 45.121 32.3659 45.5353 30.2912 46.435Z" fill="white"/>
<path d="M48.5926 46.8784C45.4718 46.8784 42.9443 49.4075 42.9443 52.525C42.9443 55.645 45.4726 58.1741 48.5926 58.1741C51.7101 58.1741 54.2375 55.645 54.2375 52.525C54.2375 49.4075 51.7101 46.8784 48.5926 46.8784Z" fill="white"/>
</g>
<defs>
<linearGradient id="paint0_linear_1816_2196" x1="22.4242" y1="75.1515" x2="69.0909" y2="9.69697" gradientUnits="userSpaceOnUse">
<stop stop-color="#0494D4"/>
<stop offset="1" stop-color="#ACD3E6"/>
</linearGradient>
<clipPath id="clip0_1816_2196">
<rect width="50" height="50" fill="white" transform="translate(13 15)"/>
</clipPath>
</defs>
</svg>
