<svg width="80" height="80" viewBox="0 0 80 80" fill="none" xmlns="http://www.w3.org/2000/svg">
<rect width="80" height="80" rx="40" fill="url(#paint0_linear_1816_2195)"/>
<path d="M43.1786 23.2146C45.447 23.2146 47.2859 21.3757 47.2859 19.1073C47.2859 16.8389 45.447 15 43.1786 15C40.9102 15 39.0713 16.8389 39.0713 19.1073C39.0713 21.3757 40.9102 23.2146 43.1786 23.2146Z" fill="white"/>
<path d="M30.4352 27.1528C29.5206 27.5592 28.6423 27.9798 27.8128 28.3963C25.2998 29.6583 27.5082 33.4189 30.0145 32.1612C30.1617 32.088 30.3115 32.0207 30.4587 31.9492C30.3847 30.3624 30.3544 28.7589 30.4352 27.1528Z" fill="white"/>
<path d="M48.8608 27.1494C48.9938 26.3956 48.7002 25.6233 47.7469 25.2144C44.1251 23.6588 39.9808 23.9945 36.035 25.0975C36.0359 25.2573 36.0283 25.418 36.0031 25.5804C35.7978 26.9029 35.7549 28.0429 35.781 29.405L43.1795 29.1416C43.1795 29.1416 44.216 29.4142 43.4436 29.7827C42.3558 29.8307 35.1769 30.1765 35.1769 30.1765C35.0886 28.3508 35.0827 26.5218 35.3603 24.7306C35.786 21.9804 31.5853 20.7992 31.1554 23.5713C30.5985 27.1603 30.8677 30.7191 31.078 34.325C31.1689 35.9058 32.8818 37.1324 34.3583 36.2078C35.4226 35.5407 36.4481 34.7919 37.4257 33.9851L37.4224 35.3943L37.3921 50.5926V62.6486C37.3921 63.9467 38.3411 65 39.6762 65C41.0097 65 42.0933 63.9467 42.0933 62.6486V45.4168H44.2269C44.2269 49.4543 44.2269 58.6692 44.2269 62.7075C44.2269 65.5191 48.5883 65.5191 48.5883 62.7075C48.5883 58.6692 48.5883 54.6317 48.5883 50.5959C49.4775 32.3883 49.4809 32.4429 48.8608 27.1494Z" fill="white"/>
<defs>
<linearGradient id="paint0_linear_1816_2195" x1="22.4242" y1="75.1515" x2="69.0909" y2="9.69697" gradientUnits="userSpaceOnUse">
<stop stop-color="#0494D4"/>
<stop offset="1" stop-color="#9ED6EF"/>
</linearGradient>
</defs>
</svg>
