<svg width="145" height="30" viewBox="0 0 145 30" fill="none" xmlns="http://www.w3.org/2000/svg">
<path d="M49.8672 22.5001H52.7697L53.4447 13.5676C53.5122 12.5101 53.4672 11.0701 53.4672 11.0701H53.5122C53.5122 11.0701 54.0069 12.6451 54.3894 13.5676L56.9544 19.7551H59.4969L62.0844 13.5676C62.4669 12.6451 62.9394 11.0926 62.9394 11.0926H62.9844C62.9844 11.0926 62.9394 12.5101 63.0069 13.5676L63.6819 22.5001H66.5619L65.2794 6.5251H62.1744L59.0469 14.4226C58.6869 15.3676 58.2594 16.7626 58.2594 16.7626H58.2144C58.2144 16.7626 57.7644 15.3676 57.4044 14.4226L54.2769 6.5251H51.1722L49.8672 22.5001ZM68.8558 16.7626C68.8558 20.0251 71.2183 22.7701 75.0208 22.7701C77.8783 22.7701 79.6333 21.1276 79.6333 21.1276L78.5308 19.0801C78.5308 19.0801 77.0683 20.3401 75.2233 20.3401C73.5133 20.3401 71.9608 19.3051 71.7808 17.3026H79.7008C79.7008 17.3026 79.7683 16.5376 79.7683 16.2001C79.7683 13.1626 77.9908 10.7551 74.6833 10.7551C71.2633 10.7551 68.8558 13.2301 68.8558 16.7626ZM71.8708 15.3451C72.1408 13.8601 73.1533 12.9601 74.6158 12.9601C75.8758 12.9601 76.8433 13.7926 76.8883 15.3451H71.8708ZM82.6189 18.2926C82.6189 22.1401 85.7914 22.6126 87.3889 22.6126C87.9289 22.6126 88.2664 22.5451 88.2664 22.5451V20.0476C88.2664 20.0476 88.0639 20.0926 87.7489 20.0926C86.9614 20.0926 85.4764 19.8226 85.4764 17.9326V13.4776H88.0864V11.2051H85.4764V7.8976H82.6864V11.2051H81.1339V13.4776H82.6189V18.2926ZM90.6053 22.5001H93.4628V17.9551C93.4628 17.2801 93.5303 16.6501 93.7103 16.0876C94.2503 14.3776 95.6228 13.6801 96.8378 13.6801C97.2203 13.6801 97.5128 13.7251 97.5128 13.7251V10.9126C97.5128 10.9126 97.2653 10.8676 96.9953 10.8676C95.2403 10.8676 93.8678 12.1726 93.3503 13.8151H93.3053C93.3053 13.8151 93.3503 13.4326 93.3503 13.0051V11.0251H90.6053V22.5001ZM98.5837 16.7626C98.5837 20.2951 101.396 22.7701 104.906 22.7701C108.394 22.7701 111.206 20.2951 111.206 16.7626C111.206 13.2526 108.394 10.7551 104.884 10.7551C101.396 10.7551 98.5837 13.2526 98.5837 16.7626ZM101.486 16.7626C101.486 14.6476 103.039 13.1851 104.906 13.1851C106.751 13.1851 108.304 14.6476 108.304 16.7626C108.304 18.9001 106.751 20.3401 104.906 20.3401C103.039 20.3401 101.486 18.9001 101.486 16.7626ZM113.501 22.5001H116.359V17.2351C116.359 16.6951 116.404 16.1776 116.561 15.7051C116.989 14.3326 118.114 13.3651 119.644 13.3651C121.106 13.3651 121.466 14.3101 121.466 15.7051V22.5001H124.301V15.1201C124.301 12.0826 122.861 10.7551 120.319 10.7551C118.001 10.7551 116.741 12.1726 116.246 13.1401H116.201C116.201 13.1401 116.246 12.7801 116.246 12.3526V11.0251H113.501V22.5001ZM127.3 9.0676H130.135V6.5251H127.3V9.0676ZM127.3 22.5001H130.158V11.0251H127.3V22.5001ZM132.466 16.7626C132.466 20.0926 134.896 22.7701 138.698 22.7701C141.781 22.7701 143.424 20.9026 143.424 20.9026L142.321 18.8776C142.321 18.8776 140.881 20.3401 138.946 20.3401C136.763 20.3401 135.369 18.6751 135.369 16.7401C135.369 14.7826 136.741 13.1851 138.856 13.1851C140.656 13.1851 141.848 14.4226 141.848 14.4226L143.108 12.4651C143.108 12.4651 141.691 10.7551 138.698 10.7551C134.896 10.7551 132.466 13.5001 132.466 16.7626Z" fill="#181C32"/>
<path d="M32.7393 1.4876L40.8867 26.8556C41.3309 28.2387 40.2992 29.6537 38.8465 29.6537H32.8554C31.9218 29.6537 31.0956 29.0492 30.813 28.1593L22.7583 2.79135C22.3195 1.40958 23.3509 0 24.8006 0H30.6991C31.6301 0 32.4546 0.601173 32.7393 1.4876Z" fill="#EF5B2D"/>
<g filter="url(#filter0_i_1619:1746)">
<path d="M24.9367 20.25L19.1916 1.84778C18.8484 0.748548 17.8305 0 16.679 0C15.2773 0 14.1215 1.09841 14.0502 2.49826L13.3493 16.2531C13.3244 16.7417 13.3834 17.2309 13.5236 17.6995L16.6423 28.1249C16.9137 29.0322 17.7483 29.6537 18.6952 29.6537H21.5943C22.5269 29.6537 23.3525 29.0504 23.6359 28.1618L24.925 24.1186C25.326 22.8609 25.3301 21.5102 24.9367 20.25Z" fill="#F4F4F4"/>
<path d="M24.9367 20.25L19.1916 1.84778C18.8484 0.748548 17.8305 0 16.679 0C15.2773 0 14.1215 1.09841 14.0502 2.49826L13.3493 16.2531C13.3244 16.7417 13.3834 17.2309 13.5236 17.6995L16.6423 28.1249C16.9137 29.0322 17.7483 29.6537 18.6952 29.6537H21.5943C22.5269 29.6537 23.3525 29.0504 23.6359 28.1618L24.925 24.1186C25.326 22.8609 25.3301 21.5102 24.9367 20.25Z" fill="url(#paint0_linear_1619:1746)"/>
</g>
<path d="M10.8839 0H16.7845C18.2295 0 19.2602 1.40083 18.8304 2.78033L10.8584 28.3647C10.5794 29.2602 9.7505 29.8701 8.81257 29.8701H2.91192C1.467 29.8701 0.436238 28.4693 0.866082 27.0898L8.83801 1.50538C9.11707 0.609943 9.94598 0 10.8839 0Z" fill="#EF5B2D"/>
<defs>
<filter id="filter0_i_1619:1746" x="9.34375" y="0" width="15.8848" height="32.6537" filterUnits="userSpaceOnUse" color-interpolation-filters="sRGB">
<feFlood flood-opacity="0" result="BackgroundImageFix"/>
<feBlend mode="normal" in="SourceGraphic" in2="BackgroundImageFix" result="shape"/>
<feColorMatrix in="SourceAlpha" type="matrix" values="0 0 0 0 0 0 0 0 0 0 0 0 0 0 0 0 0 0 127 0" result="hardAlpha"/>
<feOffset dx="-4" dy="3"/>
<feGaussianBlur stdDeviation="2"/>
<feComposite in2="hardAlpha" operator="arithmetic" k2="-1" k3="1"/>
<feColorMatrix type="matrix" values="0 0 0 0 0.904167 0 0 0 0 0.892865 0 0 0 0 0.892865 0 0 0 0.4 0"/>
<feBlend mode="normal" in2="shape" result="effect1_innerShadow_1619:1746"/>
</filter>
<linearGradient id="paint0_linear_1619:1746" x1="15.5357" y1="13.125" x2="26.25" y2="16.3393" gradientUnits="userSpaceOnUse">
<stop stop-opacity="0.2"/>
<stop offset="0.911458" stop-color="white" stop-opacity="0"/>
</linearGradient>
</defs>
</svg>
